<svg width="20" height="20" viewBox="0 0 20 20" fill="none" xmlns="http://www.w3.org/2000/svg">
<path d="M9.99986 0C7.28302 0 6.94365 0.0125 5.87742 0.06C4.81243 0.11 4.08744 0.2775 3.44995 0.525C2.78242 0.775778 2.17771 1.16932 1.6781 1.67812C1.16887 2.17738 0.77526 2.7822 0.524993 3.45C0.277496 4.0875 0.109373 4.8125 0.0599992 5.8775C0.00999986 6.94438 0 7.28375 0 10C0 12.7169 0.0124998 13.0563 0.0599992 14.1225C0.109998 15.1869 0.277496 15.9125 0.524993 16.55C0.775984 17.2174 1.16949 17.8221 1.6781 18.3219C2.17759 18.8308 2.78233 19.2244 3.44995 19.475C4.08807 19.7219 4.81306 19.8906 5.87742 19.94C6.94428 19.99 7.28365 20 9.99986 20C12.7167 20 13.0561 19.9875 14.1223 19.94C15.1867 19.89 15.9123 19.7213 16.5498 19.475C17.217 19.2237 17.8216 18.8302 18.3216 18.3219C18.8307 17.8225 19.2243 17.2177 19.4747 16.55C19.7216 15.9125 19.8903 15.1869 19.9397 14.1225C19.9897 13.0556 19.9997 12.7163 19.9997 10C19.9997 7.28312 19.9872 6.94375 19.9397 5.8775C19.8897 4.81313 19.721 4.08687 19.4747 3.45C19.2236 2.78262 18.8301 2.17797 18.3216 1.67812C17.8225 1.16871 17.2177 0.77507 16.5498 0.525C15.9123 0.2775 15.1867 0.109375 14.1223 0.06C13.0554 0.01 12.7161 0 9.99986 0ZM9.99986 1.8C12.6686 1.8 12.9873 1.81312 14.0417 1.85938C15.0167 1.905 15.5454 2.06687 15.8973 2.205C16.366 2.38625 16.6973 2.6025 17.0491 2.95187C17.3979 3.30188 17.6148 3.63438 17.7954 4.1025C17.9322 4.45438 18.0954 4.98375 18.1397 5.95875C18.1872 7.01313 18.1979 7.33 18.1979 10C18.1979 12.67 18.1854 12.9875 18.1366 14.0419C18.0854 15.0169 17.9229 15.5456 17.7854 15.8975C17.5991 16.3663 17.3866 16.6975 17.0366 17.0494C16.7134 17.3803 16.3206 17.6352 15.8867 17.7956C15.5367 17.9325 14.9992 18.0956 14.0242 18.14C12.9623 18.1875 12.6498 18.1981 9.97486 18.1981C7.29927 18.1981 6.98678 18.1856 5.92554 18.1369C4.94993 18.0856 4.41244 17.9231 4.06244 17.7856C3.58807 17.5994 3.26245 17.3869 2.91308 17.0369C2.57858 16.7158 2.32203 16.3224 2.16309 15.8869C2.0256 15.5369 1.86435 14.9994 1.8131 14.0244C1.7756 12.9744 1.76248 12.65 1.76248 9.9875C1.76248 7.32437 1.7756 6.99937 1.8131 5.93687C1.86435 4.96187 2.0256 4.425 2.16309 4.075C2.33809 3.6 2.56246 3.275 2.91308 2.92438C3.26245 2.575 3.58807 2.35 4.06244 2.175C4.41244 2.0375 4.93806 1.875 5.91304 1.825C6.97553 1.7875 7.28802 1.775 9.96236 1.775L9.99986 1.8ZM9.99986 4.865C9.32551 4.86492 8.65775 4.99768 8.03471 5.25571C7.41168 5.51374 6.84557 5.89198 6.36873 6.36882C5.8919 6.84567 5.51366 7.41178 5.25564 8.03482C4.99761 8.65787 4.86485 9.32564 4.86493 10C4.86493 12.8375 7.1649 15.135 9.99986 15.135C12.8373 15.135 15.1348 12.835 15.1348 10C15.1348 7.1625 12.8348 4.865 9.99986 4.865ZM9.99986 13.3337C9.56208 13.3338 9.12857 13.2477 8.7241 13.0801C8.31964 12.9126 7.95214 12.6671 7.64261 12.3575C7.33308 12.0479 7.08759 11.6803 6.92015 11.2758C6.75271 10.8713 6.66662 10.4378 6.66678 10C6.6667 9.56226 6.75286 9.1288 6.92033 8.72437C7.0878 8.31994 7.33331 7.95247 7.64283 7.64294C7.95236 7.33342 8.31982 7.0879 8.72425 6.92043C9.12867 6.75295 9.56213 6.66679 9.99986 6.66687C10.4376 6.66679 10.871 6.75295 11.2755 6.92043C11.6799 7.0879 12.0474 7.33342 12.3569 7.64294C12.6664 7.95247 12.9119 8.31994 13.0794 8.72437C13.2469 9.1288 13.333 9.56226 13.3329 10C13.333 10.4377 13.2469 10.8712 13.0794 11.2756C12.9119 11.6801 12.6664 12.0475 12.3569 12.3571C12.0474 12.6666 11.6799 12.9121 11.2755 13.0796C10.871 13.247 10.4376 13.3338 9.99986 13.3337ZM16.5379 4.6625C16.5379 5.325 15.9998 5.8625 15.3379 5.8625C14.6754 5.8625 14.1379 5.32438 14.1379 4.6625C14.148 4.35094 14.2788 4.05551 14.5028 3.83868C14.7267 3.62185 15.0262 3.50061 15.3379 3.50061C15.6496 3.50061 15.9491 3.62185 16.1731 3.83868C16.397 4.05551 16.5278 4.35094 16.5379 4.6625Z" fill="white"/>
</svg>
