<svg width="20" height="14" viewBox="0 0 20 14" fill="none" xmlns="http://www.w3.org/2000/svg">
<path d="M19.58 2.18637C19.4671 1.76362 19.2444 1.37774 18.9342 1.06737C18.624 0.757007 18.2372 0.533043 17.8125 0.417901C16.2532 -7.40233e-08 9.99888 0 9.99888 0C9.99888 0 3.7446 -7.40233e-08 2.18462 0.417901C1.76009 0.533252 1.37347 0.757297 1.06342 1.06764C0.753358 1.37798 0.530724 1.76375 0.417768 2.18637C-0.000976562 3.74621 -0.000976562 7 -0.000976562 7C-0.000976562 7 -0.000976562 10.2538 0.417768 11.8136C0.530605 12.2364 0.753275 12.6223 1.06347 12.9327C1.37367 13.2431 1.76051 13.467 2.18524 13.5821C3.74397 14 9.99826 14 9.99826 14C9.99826 14 16.2525 14 17.8125 13.5821C18.2374 13.4671 18.6243 13.2432 18.9347 12.9328C19.245 12.6224 19.4677 12.2365 19.5806 11.8136C19.9987 10.2538 19.9987 7 19.9987 7C19.9987 7 19.9987 3.74621 19.58 2.18637ZM7.95329 9.95449V4.04613L13.1801 7L7.95266 9.95387L7.95329 9.95449Z" fill="white"/>
</svg>
